<svg width="78" height="108" viewBox="0 0 78 108" fill="none" xmlns="http://www.w3.org/2000/svg">
<g clip-path="url(#clip0_12_30)">
<path d="M0 0H68C73.5228 0 78 4.47715 78 10V97.8628C78 103.386 73.5228 107.863 68 107.863H0V0Z" fill="#636363"/>
<path d="M5.11364 50V32.5455H15.6477V34.4205H7.22727V40.3182H15.1023V42.1932H7.22727V48.125H15.7841V50H5.11364ZM29.8892 36.9091L25.0483 50H23.0028L18.1619 36.9091H20.3438L23.9574 47.3409H24.0938L27.7074 36.9091H29.8892ZM37.5639 50.2727C36.3026 50.2727 35.2145 49.9943 34.2997 49.4375C33.3906 48.875 32.6889 48.0909 32.1946 47.0852C31.706 46.0739 31.4616 44.8977 31.4616 43.5568C31.4616 42.2159 31.706 41.0341 32.1946 40.0114C32.6889 38.983 33.3764 38.1818 34.2571 37.608C35.1435 37.0284 36.1776 36.7386 37.3594 36.7386C38.0412 36.7386 38.7145 36.8523 39.3793 37.0795C40.044 37.3068 40.6491 37.6761 41.1946 38.1875C41.7401 38.6932 42.1747 39.3636 42.4986 40.1989C42.8224 41.0341 42.9844 42.0625 42.9844 43.2841V44.1364H32.8935V42.3977H40.9389C40.9389 41.6591 40.7912 41 40.4957 40.4205C40.206 39.8409 39.7912 39.3835 39.2514 39.0483C38.7173 38.7131 38.0866 38.5455 37.3594 38.5455C36.5582 38.5455 35.8651 38.7443 35.2798 39.142C34.7003 39.5341 34.2543 40.0455 33.9418 40.6761C33.6293 41.3068 33.473 41.983 33.473 42.7045V43.8636C33.473 44.8523 33.6435 45.6903 33.9844 46.3778C34.331 47.0597 34.8111 47.5795 35.4247 47.9375C36.0384 48.2898 36.7514 48.4659 37.5639 48.4659C38.0923 48.4659 38.5696 48.392 38.9957 48.2443C39.4276 48.0909 39.7997 47.8636 40.1122 47.5625C40.4247 47.2557 40.6662 46.875 40.8366 46.4205L42.7798 46.9659C42.5753 47.625 42.2315 48.2045 41.7486 48.7045C41.2656 49.1989 40.669 49.5852 39.9588 49.8636C39.2486 50.1364 38.4503 50.2727 37.5639 50.2727ZM46.044 50V36.9091H47.9872V38.8864H48.1236C48.3622 38.2386 48.794 37.7131 49.419 37.3097C50.044 36.9062 50.7486 36.7045 51.5327 36.7045C51.6804 36.7045 51.8651 36.7074 52.0866 36.7131C52.3082 36.7187 52.4759 36.7273 52.5895 36.7386V38.7841C52.5213 38.767 52.3651 38.7415 52.1207 38.7074C51.8821 38.6676 51.6293 38.6477 51.3622 38.6477C50.7259 38.6477 50.1577 38.7812 49.6577 39.0483C49.1634 39.3097 48.7713 39.6733 48.4815 40.1392C48.1974 40.5994 48.0554 41.125 48.0554 41.7159V50H46.044Z" fill="white"/>
<path d="M21.1136 73V55.5455H23.2273V64.2045H23.4318L31.2727 55.5455H34.0341L26.7045 63.4205L34.0341 73H31.4773L25.4091 64.8864L23.2273 67.3409V73H21.1136ZM41.0249 73.2727C39.7635 73.2727 38.6754 72.9943 37.7607 72.4375C36.8516 71.875 36.1499 71.0909 35.6555 70.0852C35.1669 69.0739 34.9226 67.8977 34.9226 66.5568C34.9226 65.2159 35.1669 64.0341 35.6555 63.0114C36.1499 61.983 36.8374 61.1818 37.718 60.608C38.6044 60.0284 39.6385 59.7386 40.8203 59.7386C41.5021 59.7386 42.1754 59.8523 42.8402 60.0795C43.505 60.3068 44.1101 60.6761 44.6555 61.1875C45.201 61.6932 45.6357 62.3636 45.9595 63.1989C46.2834 64.0341 46.4453 65.0625 46.4453 66.2841V67.1364H36.3544V65.3977H44.3999C44.3999 64.6591 44.2521 64 43.9567 63.4205C43.6669 62.8409 43.2521 62.3835 42.7124 62.0483C42.1783 61.7131 41.5476 61.5455 40.8203 61.5455C40.0192 61.5455 39.326 61.7443 38.7408 62.142C38.1612 62.5341 37.7152 63.0455 37.4027 63.6761C37.0902 64.3068 36.9339 64.983 36.9339 65.7045V66.8636C36.9339 67.8523 37.1044 68.6903 37.4453 69.3778C37.7919 70.0597 38.272 70.5795 38.8857 70.9375C39.4993 71.2898 40.2124 71.4659 41.0249 71.4659C41.5533 71.4659 42.0305 71.392 42.4567 71.2443C42.8885 71.0909 43.2607 70.8636 43.5732 70.5625C43.8857 70.2557 44.1271 69.875 44.2976 69.4205L46.2408 69.9659C46.0362 70.625 45.6925 71.2045 45.2095 71.7045C44.7266 72.1989 44.13 72.5852 43.4197 72.8636C42.7095 73.1364 41.9112 73.2727 41.0249 73.2727ZM54.9936 73.2727C53.7322 73.2727 52.6442 72.9943 51.7294 72.4375C50.8203 71.875 50.1186 71.0909 49.6243 70.0852C49.1357 69.0739 48.8913 67.8977 48.8913 66.5568C48.8913 65.2159 49.1357 64.0341 49.6243 63.0114C50.1186 61.983 50.8061 61.1818 51.6868 60.608C52.5732 60.0284 53.6072 59.7386 54.7891 59.7386C55.4709 59.7386 56.1442 59.8523 56.8089 60.0795C57.4737 60.3068 58.0788 60.6761 58.6243 61.1875C59.1697 61.6932 59.6044 62.3636 59.9283 63.1989C60.2521 64.0341 60.4141 65.0625 60.4141 66.2841V67.1364H50.3232V65.3977H58.3686C58.3686 64.6591 58.2209 64 57.9254 63.4205C57.6357 62.8409 57.2209 62.3835 56.6811 62.0483C56.147 61.7131 55.5163 61.5455 54.7891 61.5455C53.9879 61.5455 53.2947 61.7443 52.7095 62.142C52.13 62.5341 51.6839 63.0455 51.3714 63.6761C51.0589 64.3068 50.9027 64.983 50.9027 65.7045V66.8636C50.9027 67.8523 51.0732 68.6903 51.4141 69.3778C51.7607 70.0597 52.2408 70.5795 52.8544 70.9375C53.468 71.2898 54.1811 71.4659 54.9936 71.4659C55.522 71.4659 55.9993 71.392 56.4254 71.2443C56.8572 71.0909 57.2294 70.8636 57.5419 70.5625C57.8544 70.2557 58.0959 69.875 58.2663 69.4205L60.2095 69.9659C60.005 70.625 59.6612 71.2045 59.1783 71.7045C58.6953 72.1989 58.0987 72.5852 57.3885 72.8636C56.6783 73.1364 55.88 73.2727 54.9936 73.2727ZM63.4737 77.9091V59.9091H65.4169V61.9886H65.6555C65.8033 61.7614 66.0078 61.4716 66.2692 61.1193C66.5362 60.7614 66.9169 60.4432 67.4112 60.1648C67.9112 59.8807 68.5874 59.7386 69.4396 59.7386C70.5419 59.7386 71.5135 60.0142 72.3544 60.5653C73.1953 61.1165 73.8516 61.8977 74.3232 62.9091C74.7947 63.9205 75.0305 65.1136 75.0305 66.4886C75.0305 67.875 74.7947 69.0767 74.3232 70.0938C73.8516 71.1051 73.1982 71.8892 72.3629 72.446C71.5277 72.9972 70.5646 73.2727 69.4737 73.2727C68.6328 73.2727 67.9595 73.1335 67.4538 72.8551C66.9482 72.571 66.5589 72.25 66.2862 71.892C66.0135 71.5284 65.8033 71.2273 65.6555 70.9886H65.4851V77.9091H63.4737ZM65.451 66.4545C65.451 67.4432 65.5959 68.3153 65.8857 69.071C66.1754 69.821 66.5987 70.4091 67.1555 70.8352C67.7124 71.2557 68.3942 71.4659 69.201 71.4659C70.0419 71.4659 70.7436 71.2443 71.3061 70.8011C71.8743 70.3523 72.3004 69.75 72.5845 68.9943C72.8743 68.233 73.0192 67.3864 73.0192 66.4545C73.0192 65.5341 72.8771 64.7045 72.593 63.9659C72.3146 63.2216 71.8913 62.6335 71.3232 62.2017C70.7607 61.7642 70.0533 61.5455 69.201 61.5455C68.3828 61.5455 67.6953 61.7528 67.1385 62.1676C66.5817 62.5767 66.1612 63.1506 65.8771 63.8892C65.593 64.6222 65.451 65.4773 65.451 66.4545Z" fill="#2FCBF9"/>
</g>
<defs>
<clipPath id="clip0_12_30">
<rect width="78" height="108" fill="white"/>
</clipPath>
</defs>
</svg>